<?xml version="1.0" standalone="no"?>
<!DOCTYPE svg PUBLIC "-//W3C//DTD SVG 20010904//EN"
 "http://www.w3.org/TR/2001/REC-SVG-20010904/DTD/svg10.dtd">
<svg version="1.0" xmlns="http://www.w3.org/2000/svg"
 width="178.000000pt" height="193.000000pt" viewBox="0 0 178.000000 193.000000"
 preserveAspectRatio="xMidYMid meet">
<metadata>
Created by potrace 1.16, written by Peter Selinger 2001-2019
</metadata>
<g transform="translate(0.000000,193.000000) scale(0.100000,-0.100000)"
fill="#273840" stroke="none">
<path d="M678 1803 c-83 -74 -114 -101 -188 -165 -41 -35 -74 -69 -73 -74 2
-5 29 -10 60 -12 67 -3 77 -10 68 -50 -21 -97 -180 -263 -410 -426 -36 -25 -7
-29 82 -12 187 37 309 85 429 167 102 71 164 140 248 277 l26 42 65 0 c35 0
66 4 69 9 5 8 -75 84 -175 166 -13 11 -49 41 -80 68 -31 26 -61 47 -68 47 -6
0 -30 -17 -53 -37z"/>
<path d="M1238 903 l-3 -658 -45 -5 c-25 -3 -67 -3 -95 0 l-50 5 -3 474 c-2
365 -5 477 -15 483 -18 11 -205 10 -212 -2 -3 -5 -7 -222 -8 -482 l-2 -473
-95 0 -95 0 -3 354 c-1 220 -6 359 -12 366 -12 14 -187 20 -207 7 -10 -6 -13
-95 -15 -368 l-3 -359 -130 -2 c-189 -4 -176 3 -173 -101 l3 -87 819 -3 c571
-1 822 1 826 9 12 18 11 138 0 159 -10 20 -19 21 -121 19 -61 -1 -115 3 -120
8 -5 5 -10 283 -11 658 l-3 650 -112 3 -113 3 -2 -658z"/>
</g>
</svg>
